#N canvas 2391 -9 2400 1246 10;
#X obj 16 106 outlet;
#N canvas 3071 308 450 300 @hv_obj 0;
#X obj 152 38 inlet;
#X obj 261 44 inlet;
#X obj 199 177 outlet;
#X obj 303 176 outlet;
#X restore 17 65 pd @hv_obj __threshold~ \$1 \$2 \$3 \$4;
#X text 17 129 @hv_arg \$1 triggerThreshold float 0 false;
#X text 18 144 @hv_arg \$2 triggerDebounceTime float 0 false;
#X text 17 159 @hv_arg \$3 restThreshold float 0 false;
#X text 17 175 @hv_arg \$4 restDebounceTime float 0 false;
#X obj 224 104 outlet;
#X obj 16 17 inlet~;
#X obj 100 16 inlet -->;
#X connect 1 0 0 0;
#X connect 1 1 6 0;
#X connect 7 0 1 0;
#X connect 8 0 1 1;
